<?xml version="1.0" encoding="UTF-8"?>
<svg width="384px" height="136px" viewBox="0 0 384 136" version="1.1" xmlns="http://www.w3.org/2000/svg" xmlns:xlink="http://www.w3.org/1999/xlink">
    <!-- Generator: Sketch 51.2 (57519) - http://www.bohemiancoding.com/sketch -->
    <title>logo/v5_4_color@1x</title>
    <desc>Created with Sketch.</desc>
    <defs></defs>
    <g id="logo/v5_4_color" stroke="none" stroke-width="1" fill="none" fill-rule="evenodd">
        <rect id="Rectangle-8" x="0" y="0" width="384" height="136"></rect>
        <g id="Group" fill-rule="nonzero">
            <path d="M87.8195339,88.3224944 C82.7145922,93.2224237 75.9165195,96.0130187 68.6936756,96.0130187 C61.4632837,96.0130187 54.6587053,93.2165687 49.552241,88.3075318 C44.1811227,83.1440731 41.0842132,76.0258613 41.0842132,68.4286447 C41.0842132,53.1942156 53.4453906,40.8442706 68.6936756,40.8442706 C76.2481775,40.8442706 83.3305912,43.8979712 88.4921144,49.2028202 C90.6864433,51.4580815 90.635385,55.0635707 88.3780725,57.2559057 C86.12076,59.4482407 82.5119915,59.3972288 80.3176626,57.1419675 C77.2811385,54.0211248 73.136728,52.2341932 68.6936756,52.2341932 C59.7415924,52.2341932 52.4844951,59.4846961 52.4844951,68.4286447 C52.4844951,72.8967254 54.2967956,77.0622777 57.4567506,80.1000618 C60.4599728,82.9871726 64.4406518,84.6230961 68.6936756,84.6230961 C72.9422737,84.6230961 76.9191213,82.9906082 79.9214243,80.1088765 C82.1916151,77.9298556 85.8000205,78.0020912 87.9810232,80.2702191 C90.162026,82.538347 90.0897247,86.1434735 87.8195339,88.3224944 Z M122.602489,53.8090615 C127.673677,53.8090615 131.768601,55.3317789 134.887382,58.3772595 C138.006163,61.4227402 139.56553,65.9401353 139.56553,71.9295805 L139.56553,89.4464029 C139.56553,92.7232525 136.909119,95.379664 133.632269,95.379664 C130.355419,95.379664 127.699008,92.7232525 127.699008,89.4464029 L127.699008,73.7568597 C127.699008,70.5083471 126.989052,68.0846885 125.569119,66.4858111 C124.149186,64.8869338 122.095386,64.0875071 119.407656,64.0875071 C116.415654,64.0875071 114.032231,65.0138269 112.257315,66.8664943 C110.482399,68.7191617 109.594955,71.4727424 109.594955,75.1273192 L109.594955,89.4464029 C109.594955,92.7232525 106.938543,95.379664 103.661694,95.379664 C100.384844,95.379664 97.7284324,92.7232525 97.7284324,89.4464029 L97.7284324,44.8195422 C97.7284324,41.5426925 100.384844,38.8862811 103.661694,38.8862811 C106.938543,38.8862811 109.594955,41.5426925 109.594955,44.8195422 L109.594955,58.6818061 C111.167023,57.1083078 113.06869,55.9028231 115.300013,55.0653159 C117.531336,54.2278088 119.96547,53.8090615 122.602489,53.8090615 Z M166.514949,53.8090615 C172.853934,53.8090615 177.722203,55.3190896 181.119899,58.3391912 C184.517595,61.3592928 186.216418,65.9147559 186.216418,72.0057171 L186.216418,89.8267401 C186.216418,92.8935353 183.730289,95.379664 180.663494,95.379664 L180.211725,95.379664 C177.394435,95.379664 175.11057,93.0957993 175.11057,90.2785095 C172.879247,94.0853602 168.720935,95.9887571 162.635509,95.9887571 C159.491372,95.9887571 156.765649,95.455806 154.458258,94.3898877 C152.150867,93.3239695 150.388655,91.8520093 149.17157,89.9739629 C147.954485,88.0959166 147.345951,85.9641121 147.345951,83.5784856 C147.345951,79.7716349 148.77854,76.7769572 151.643762,74.5943627 C154.508984,72.4117683 158.933529,71.3204874 164.917532,71.3204874 L174.349896,71.3204874 C174.349896,68.7318289 173.563873,66.7396069 171.991805,65.3437616 C170.419736,63.9479163 168.061669,63.2500042 164.917532,63.2500042 C162.736921,63.2500042 160.594376,63.5926156 158.489833,64.2778487 C158.003733,64.4361214 157.471472,64.6507526 156.893049,64.9217424 C154.705917,65.9463918 152.100116,65.056111 150.997189,62.9073893 C149.813735,60.6017869 150.723417,57.7733485 153.029019,56.5898952 C153.08981,56.5586915 153.151276,56.5288194 153.213371,56.5003002 C154.597196,55.8647576 155.823542,55.3991141 156.892416,55.1033842 C160.011197,54.2404981 163.218676,53.8090615 166.514949,53.8090615 Z M165.602139,87.9944104 C167.630615,87.9944104 169.43086,87.5249059 171.002928,86.5858827 C172.574997,85.6468595 173.690641,84.2637245 174.349896,82.4364361 L174.349896,78.2489212 L166.210679,78.2489212 C161.342338,78.2489212 158.908204,79.8477745 158.908204,83.0455292 C158.908204,84.5682695 159.504059,85.7737541 160.695789,86.6620193 C161.887518,87.5502845 163.522952,87.9944104 165.602139,87.9944104 Z M221.533256,53.8090615 C226.604445,53.8090615 230.699368,55.3317789 233.818149,58.3772595 C236.93693,61.4227402 238.496298,65.9401353 238.496298,71.9295805 L238.496298,89.4464029 C238.496298,92.7232525 235.839886,95.379664 232.563036,95.379664 C229.286187,95.379664 226.629775,92.7232525 226.629775,89.4464029 L226.629775,73.7568597 C226.629775,70.5083471 225.91982,68.0846885 224.499887,66.4858111 C223.079954,64.8869338 221.026153,64.0875071 218.338423,64.0875071 C215.346422,64.0875071 212.962999,65.0138269 211.188083,66.8664943 C209.413167,68.7191617 208.525722,71.4727424 208.525722,75.1273192 L208.525722,89.4464029 C208.525722,92.7232525 205.869311,95.379664 202.592461,95.379664 C199.315611,95.379664 196.6592,92.7232525 196.6592,89.4464029 L196.6592,60.0851796 C196.6592,56.9553681 199.196414,54.4181545 202.326225,54.4181545 L203.196642,54.4181545 C205.845735,54.4181545 207.99325,56.5656691 207.99325,59.2147625 C209.565319,57.4889902 211.517697,56.1566124 213.850444,55.2175892 C216.183191,54.278566 218.744102,53.8090615 221.533256,53.8090615 Z M272.466809,53.8090615 C277.537998,53.8090615 281.632921,55.3317789 284.751702,58.3772595 C287.870483,61.4227402 289.42985,65.9401353 289.42985,71.9295805 L289.42985,89.4464029 C289.42985,92.7232525 286.773439,95.379664 283.496589,95.379664 C280.21974,95.379664 277.563328,92.7232525 277.563328,89.4464029 L277.563328,73.7568597 C277.563328,70.5083471 276.853372,68.0846885 275.43344,66.4858111 C274.013507,64.8869338 271.959706,64.0875071 269.271976,64.0875071 C266.279975,64.0875071 263.896552,65.0138269 262.121636,66.8664943 C260.34672,68.7191617 259.459275,71.4727424 259.459275,75.1273192 L259.459275,89.4464029 C259.459275,92.7232525 256.802864,95.379664 253.526014,95.379664 C250.249164,95.379664 247.592753,92.7232525 247.592753,89.4464029 L247.592753,60.0851796 C247.592753,56.9553681 250.129966,54.4181545 253.259778,54.4181545 L254.130195,54.4181545 C256.779288,54.4181545 258.926803,56.5656691 258.926803,59.2147625 C260.498871,57.4889902 262.45125,56.1566124 264.783997,55.2175892 C267.116743,54.278566 269.677655,53.8090615 272.466809,53.8090615 Z M332.775357,78.2489212 L309.228929,78.2489212 C309.786759,80.7868217 311.105249,82.791733 313.184436,84.2637153 C315.263623,85.7356976 317.849891,86.4716777 320.943316,86.4716777 C323.073215,86.4716777 324.962205,86.1544449 326.610341,85.5199698 C326.96239,85.3844434 327.359123,85.1894272 327.800541,84.9349214 C329.95547,83.6924821 332.68371,84.1093967 334.369221,85.9387213 C335.829157,87.5232248 335.728176,89.9912309 334.143672,91.4511674 C333.928241,91.6496628 333.691137,91.8232618 333.436846,91.9686819 C328.750299,94.6487273 324.484369,95.9887571 320.639046,95.9887571 C316.024264,95.9887571 311.942019,95.0878159 308.392187,93.2859065 C304.842355,91.4839972 302.103954,88.9842027 300.176902,85.786448 C298.24985,82.5886934 297.286339,78.9595501 297.286339,74.8989093 C297.286339,70.8890265 298.237173,67.2725725 300.138868,64.0494388 C302.040564,60.8263052 304.652187,58.3138214 307.973816,56.511912 C311.295444,54.7100026 315.010034,53.8090615 319.117697,53.8090615 C323.123936,53.8090615 326.749782,54.6719347 329.995343,56.397707 C333.240903,58.1234794 335.789137,60.5978953 337.640121,63.8210289 C338.379167,65.1079361 338.980272,67.3491552 339.443435,70.5446864 C339.977208,74.2273653 337.424513,77.6454735 333.741834,78.1792442 C333.421765,78.2256353 333.098771,78.2489212 332.775357,78.2489212 Z M319.193765,62.7931843 C316.506035,62.7931843 314.249389,63.5545431 312.423762,65.0772834 C310.598134,66.6000237 309.482489,68.6810709 309.076794,71.3204874 L329.234668,71.3204874 C328.828973,68.7318289 327.713328,66.663471 325.8877,65.1153517 C324.062072,63.5672324 321.830783,62.7931843 319.193765,62.7931843 Z M370.903509,92.5589333 L363.942966,82.8171193 L356.682644,92.6453388 C355.412307,94.3649806 353.401216,95.379664 351.263244,95.379664 L348.197004,95.379664 C346.430158,95.379664 344.997847,93.9473523 344.997847,92.1805063 C344.997847,91.4791521 345.228324,90.7972319 345.653812,90.2396857 L357.477233,74.746636 L346.251767,59.7470092 C345.149079,58.2735811 345.449623,56.1852259 346.923051,55.0825374 C347.499355,54.6512412 348.199824,54.4181545 348.919645,54.4181545 L352.139466,54.4181545 C354.297947,54.4181545 356.325765,55.452289 357.593244,57.1994402 L364.247236,66.3716062 L371.126437,57.1321464 C372.397903,55.4244397 374.401699,54.4181545 376.530757,54.4181545 L379.460726,54.4181545 C381.190643,54.4181545 382.593017,55.820529 382.593017,57.5504456 C382.593017,58.2348476 382.368859,58.9004147 381.95482,59.4453713 L370.560835,74.4420895 L382.324197,90.0087577 C383.439896,91.4851819 383.147471,93.5865128 381.671046,94.7022116 C381.089309,95.1418165 380.380052,95.379664 379.650895,95.379664 L376.385686,95.379664 C374.21006,95.379664 372.168319,94.3291318 370.903509,92.5589333 Z" id="Combined-Shape" fill="#475471"></path>
            <path d="M14.1410325,60.5554355 C13.5642613,64.442343 9.94859806,67.1253135 6.06522255,66.5480177 C2.18184704,65.970722 -0.498685418,62.3517703 0.078085736,58.4648627 C5.03711456,25.045566 33.7461541,0 67.7613914,0 C81.1445631,0 93.9737426,3.86828371 104.966037,11.0234676 C108.25724,13.165801 109.19016,17.572979 107.049774,20.8671751 C104.909387,24.1613711 100.506214,25.0951403 97.2150112,22.9528068 C88.5119723,17.2877618 78.3713552,14.2301396 67.7613914,14.2301396 C40.8232232,14.2301396 18.0696442,34.0802034 14.1410325,60.5554355 Z" id="Combined-Shape" fill="#2482D1"></path>
            <path d="M63.9380572,121.783815 C67.8561948,122.031968 70.8314882,125.412303 70.5835609,129.334004 C70.3356336,133.255705 66.9583707,136.233704 63.0402331,135.985552 C32.8849163,134.075684 7.61218573,112.619268 0.764609144,83.5602226 C-0.136634316,79.7356178 2.23040099,75.9038963 6.05153048,75.0018331 C9.87265996,74.0997699 13.7008996,76.4689581 14.6021431,80.293563 C20.0155139,103.266273 40.0441882,120.270512 63.9380572,121.783815 Z" id="Combined-Shape" fill="#06BB24"></path>
            <path d="M97.2004535,114.081859 C100.482827,111.925997 104.889799,112.841636 107.043701,116.126995 C109.197604,119.412354 108.282797,123.823334 105.000423,125.979195 C99.5482099,129.560206 93.5109921,132.163253 87.1332548,133.650826 C83.3097255,134.542644 79.4878384,132.163203 78.5968311,128.336196 C77.7058237,124.509189 80.0831024,120.683826 83.9066317,119.792008 C88.6474985,118.686226 93.138016,116.750065 97.2004535,114.081859 Z" id="Combined-Shape" fill="#E7A11B"></path>
        </g>
    </g>
</svg>